<svg aria-hidden="true" style="position: absolute; width: 0; height: 0; overflow: hidden;" version="1.1" xmlns="http://www.w3.org/2000/svg" xmlns:xlink="http://www.w3.org/1999/xlink">
<defs>
<symbol id="icon-icon-yellow" viewBox="0 0 33 32">
<path fill="#f90" style="fill: var(--color1, #f90)" d="M12.666 1.333h6.726c6.259 0 11.334 5.074 11.334 11.334v6.666c0 6.259-5.074 11.334-11.334 11.334h-6.726c-6.259 0-11.334-5.074-11.334-11.334v-6.666c0-6.259 5.074-11.334 11.334-11.334z"></path>
<path fill="none" stroke="#fff" style="stroke: var(--color2, #fff)" stroke-linejoin="miter" stroke-linecap="butt" stroke-miterlimit="4" stroke-width="2.667" d="M12.666 1.333h6.726c6.259 0 11.334 5.074 11.334 11.334v6.666c0 6.259-5.074 11.334-11.334 11.334h-6.726c-6.259 0-11.334-5.074-11.334-11.334v-6.666c0-6.259 5.074-11.334 11.334-11.334z"></path>
<path fill="none" stroke="#f90" style="stroke: var(--color1, #f90)" stroke-linejoin="miter" stroke-linecap="butt" stroke-miterlimit="4" stroke-width="2.667" d="M12.666 1.333h6.726c6.259 0 11.334 5.074 11.334 11.334v6.666c0 6.259-5.074 11.334-11.334 11.334h-6.726c-6.259 0-11.334-5.074-11.334-11.334v-6.666c0-6.259 5.074-11.334 11.334-11.334z"></path>
<path fill="#fff" style="fill: var(--color2, #fff)" d="M23.601 11.191c-0.131-0.135-0.315-0.219-0.518-0.219s-0.387 0.084-0.518 0.219l-0 0-8.779 8.949-3.375-3.44c-0.131-0.135-0.315-0.219-0.518-0.219s-0.387 0.084-0.518 0.219l-0 0c-0.133 0.136-0.215 0.323-0.215 0.528s0.082 0.392 0.215 0.529l-0-0 3.893 3.968c0.132 0.135 0.315 0.219 0.518 0.219s0.387-0.084 0.518-0.219l0-0 9.297-9.477c0.133-0.136 0.215-0.323 0.215-0.528s-0.082-0.392-0.215-0.529l0 0z"></path>
</symbol>
<symbol id="icon-icon-blue" viewBox="0 0 33 32">
<path fill="#4d8dff" style="fill: var(--color3, #4d8dff)" d="M12.666 1.333h6.726c6.259 0 11.334 5.074 11.334 11.334v6.666c0 6.259-5.074 11.334-11.334 11.334h-6.726c-6.259 0-11.334-5.074-11.334-11.334v-6.666c0-6.259 5.074-11.334 11.334-11.334z"></path>
<path fill="none" stroke="#fff" style="stroke: var(--color2, #fff)" stroke-linejoin="miter" stroke-linecap="butt" stroke-miterlimit="4" stroke-width="2.667" d="M12.666 1.333h6.726c6.259 0 11.334 5.074 11.334 11.334v6.666c0 6.259-5.074 11.334-11.334 11.334h-6.726c-6.259 0-11.334-5.074-11.334-11.334v-6.666c0-6.259 5.074-11.334 11.334-11.334z"></path>
<path fill="none" stroke="#4d8dff" style="stroke: var(--color3, #4d8dff)" stroke-linejoin="miter" stroke-linecap="butt" stroke-miterlimit="4" stroke-width="2.667" d="M12.666 1.333h6.726c6.259 0 11.334 5.074 11.334 11.334v6.666c0 6.259-5.074 11.334-11.334 11.334h-6.726c-6.259 0-11.334-5.074-11.334-11.334v-6.666c0-6.259 5.074-11.334 11.334-11.334z"></path>
<path fill="#fff" style="fill: var(--color2, #fff)" d="M23.601 11.191c-0.131-0.135-0.315-0.219-0.518-0.219s-0.387 0.084-0.518 0.219l-0 0-8.779 8.949-3.375-3.44c-0.131-0.135-0.315-0.219-0.518-0.219s-0.387 0.084-0.518 0.219l-0 0c-0.133 0.136-0.215 0.323-0.215 0.528s0.082 0.392 0.215 0.529l-0-0 3.893 3.968c0.132 0.135 0.315 0.219 0.518 0.219s0.387-0.084 0.518-0.219l0-0 9.297-9.477c0.133-0.136 0.215-0.323 0.215-0.528s-0.082-0.392-0.215-0.529l0 0z"></path>
</symbol>
<symbol id="icon-icon-red" viewBox="0 0 33 32">
<path fill="#f03e3d" style="fill: var(--color4, #f03e3d)" d="M12.667 1.333h6.726c6.259 0 11.333 5.074 11.333 11.333v6.667c0 6.259-5.074 11.333-11.333 11.333h-6.726c-6.259 0-11.333-5.074-11.333-11.333v-6.667c0-6.259 5.074-11.333 11.333-11.333z"></path>
<path fill="none" stroke="#fff" style="stroke: var(--color2, #fff)" stroke-linejoin="miter" stroke-linecap="butt" stroke-miterlimit="4" stroke-width="2.6667" d="M12.667 1.333h6.726c6.259 0 11.333 5.074 11.333 11.333v6.667c0 6.259-5.074 11.333-11.333 11.333h-6.726c-6.259 0-11.333-5.074-11.333-11.333v-6.667c0-6.259 5.074-11.333 11.333-11.333z"></path>
<path fill="none" stroke="#f03e3d" style="stroke: var(--color4, #f03e3d)" stroke-linejoin="miter" stroke-linecap="butt" stroke-miterlimit="4" stroke-width="2.6667" d="M12.667 1.333h6.726c6.259 0 11.333 5.074 11.333 11.333v6.667c0 6.259-5.074 11.333-11.333 11.333h-6.726c-6.259 0-11.333-5.074-11.333-11.333v-6.667c0-6.259 5.074-11.333 11.333-11.333z"></path>
<path fill="#fff" style="fill: var(--color2, #fff)" d="M23.601 11.19c-0.286-0.292-0.75-0.292-1.036 0l-8.779 8.949-3.375-3.44c-0.286-0.292-0.75-0.292-1.036 0s-0.286 0.765 0 1.056l3.893 3.968c0.286 0.292 0.75 0.291 1.036 0l9.297-9.478c0.286-0.292 0.286-0.765 0-1.056z"></path>
</symbol>
</defs>
</svg>
